<?xml version="1.0" encoding="UTF-8" standalone="no"?>
<!-- Generator: Adobe Illustrator 19.2.1, SVG Export Plug-In . SVG Version: 6.00 Build 0)  -->

<svg
   xmlns:dc="http://purl.org/dc/elements/1.1/"
   xmlns:cc="http://creativecommons.org/ns#"
   xmlns:rdf="http://www.w3.org/1999/02/22-rdf-syntax-ns#"
   xmlns:svg="http://www.w3.org/2000/svg"
   xmlns="http://www.w3.org/2000/svg"
   xmlns:sodipodi="http://sodipodi.sourceforge.net/DTD/sodipodi-0.dtd"
   xmlns:inkscape="http://www.inkscape.org/namespaces/inkscape"
   version="1.1"
   id="Layer_1"
   x="0px"
   y="0px"
   viewBox="0 0 500 270"
   xml:space="preserve"
   inkscape:version="0.91 r13725"
   sodipodi:docname="gaveguru.text.logo.svg"
   width="500"
   height="270"><metadata
     id="metadata3645"><rdf:RDF><cc:Work
         rdf:about=""><dc:format>image/svg+xml</dc:format><dc:type
           rdf:resource="http://purl.org/dc/dcmitype/StillImage" /><dc:title></dc:title></cc:Work></rdf:RDF></metadata><defs
     id="defs3643" /><sodipodi:namedview
     pagecolor="#ffffff"
     bordercolor="#666666"
     borderopacity="1"
     objecttolerance="10"
     gridtolerance="10"
     guidetolerance="10"
     inkscape:pageopacity="0"
     inkscape:pageshadow="2"
     inkscape:window-width="1547"
     inkscape:window-height="986"
     id="namedview3641"
     showgrid="false"
     inkscape:zoom="1.0518213"
     inkscape:cx="596.67698"
     inkscape:cy="145.31983"
     inkscape:window-x="123"
     inkscape:window-y="0"
     inkscape:window-maximized="0"
     inkscape:current-layer="g3523" /><style
     type="text/css"
     id="style3521">
	.st0{fill:#724929;}
	.st1{fill:#F3C898;}
	.st2{fill:#89562F;}
	.st3{fill:#FFFFFF;}
	.st4{fill:#353535;}
	.st5{fill:#FFE537;}
	.st6{fill:#F6A726;}
</style><g
     id="g3523"
     transform="translate(0,-290)"><path
       class="st0"
       d="m 472.63445,433.97227 2.6,-7.5 c 0.9,-2.7 1.7,-5.5 2.1,-8.5 0.4,-2.9 0.7,-5.8 0.7,-8.7 0,-7.3 -1.2,-14.2 -3.5,-20.6 -2.5,-6.7 -6.2,-12.6 -11.1,-17.5 -4.9,-4.9 -11,-8.8 -18.1,-11.4 -6.8,-2.6 -14.7,-3.9 -23.3,-3.9 -7.9,0 -15.7,1.3 -22.7,3.7 -4.3,1.5 -8.2,3.6 -12.2,6 l 0,-7.9 -130,0 0,12.7 c -3,-3.1 -6.1,-5.8 -9.8,-8.1 -5.7,-3.4 -12.1,-5.8 -19,-7.2 -6.3,-1.2 -12.5,-1.9 -18.4,-1.9 -4.9,0 -9.8,0.5 -14.4,1.6 -4.3,1 -8.5,2.3 -12.4,3.9 -3.6,1.5 -7,3 -9.9,4.5 -2.9,1.5 -5.7,2.8 -7.7,4 l -3.4,1.8 0,-45.3 -46.1,0 -1,3.6 c -2.3,-1.1 -4.9,-2 -7.8,-2.9 -5.3,-1.7 -11.499996,-2.4 -18.999996,-2.4 -8.7,0 -17.1,2 -25.1,6 -7.7,3.8 -14.7,9.2 -20.7,15.9 -5.9,6.7 -10.7,14.7 -14.2,23.7 -3.5,9.1 -5.3,19.3 -5.3,30.2 0,10.8 1.7,20.7 5,29.5 3.4,8.9 8.1,16.7 14,23.2 6,6.5 13.2,11.6 21.4,15.1 8.1,3.5 16.8,5.2 26.1,5.2 8.6,0 16.399996,-1.7 22.999996,-5.1 0.1,-0.1 0.2,-0.4 0.3,-0.5 l 1.9,3.5 34.1,0 c -0.9,1 -1.8,2 -2.7,2.9 -3.1,3.3 -5.4,7.4 -6.9,11.9 -1.4,4.1 -2.1,8.6 -2.1,13.4 0,4 0.6,7.9 1.7,11.7 0.9,3.1 2.3,6 4,8.7 l -7.2,15.2 6.7,6.2 c 1.3,1.2 2.8,2.4 4.6,3.6 1.9,1.3 4,2.5 6.4,3.6 2.4,1.1 5.1,2 7.8,2.7 3.1,0.8 6.4,1.2 9.8,1.2 6,0 11.4,-0.8 16.1,-2.4 5.1,-1.7 9.4,-4.3 13,-7.6 3.7,-3.4 6.5,-7.6 8.3,-12.4 0,-0.1 0,-0.1 0.1,-0.2 1.9,1.5 4.1,2.7 6.4,3.6 3.8,1.5 8,2.2 12.9,2.2 3,0 5.8,-0.2 8.3,-1.2 l 14.3,0 21.5,0 28.4,0 0,-4.7 c 2,1.5 4.2,2.8 6.7,3.7 3.8,1.5 8,2.2 13,2.2 3,0 5.8,-0.2 8.4,-1.2 l 35,0 0,-37 -4,0 0,-32 -11.8,0 17,-37 c 0.9,5.1 2.3,9.8 4.3,14.1 3.5,7.5 8.1,13.7 13.7,18.6 5.5,4.8 11.9,8.4 18.8,10.7 6.6,2.2 13.4,3.3 20.1,3.3 10.2,0 19.5,-1.3 27.8,-3.9 8.7,-2.7 17,-7.5 24.7,-14 l 9.5,-8.2 -10.7,-12.4 z m -378.499996,-51.3 0,31.3 c 0,-0.3 -0.5,-0.7 -0.8,-1 -1.2,-1.7 -2,-3.7 -2.7,-6.1 -0.7,-2.8 -1.1,-5.8 -1.1,-9.1 0,-3 0.4,-6 1.2,-8.8 0.8,-2.6 1.8,-4.8 3,-6.6 1.1,-1.5 2.3,-2.7 3.8,-3.6 1,-0.6 1.9,-0.9 3.099996,-0.9 0.8,0 1.6,0.2 2.3,0.5 0.8,0.3 1.6,0.9 2.3,1.6 0.6,0.6 1.2,1.3 1.6,2.5 0,0.1 0.1,0.2 0.1,0.2 l -12.799996,0 z m 184.099996,38 -10.1,0 0,-17 1.7,0 8.4,17 z m -109.5,39.6 c 0.6,0.5 1.1,1 1.7,1.5 -0.6,0 -1.1,0 -1.7,0.1 l 0,-1.6 z m 110.4,2.4 0,-37.6 18.2,34.6 -1.6,0 c -3.5,0 -6.4,0.8 -9,1.5 -1.1,0.3 -2.2,1.5 -3.2,1.5 l -4.4,0 z"
       id="path3619"
       inkscape:connector-curvature="0"
       style="fill:#724929" /><g
       id="g3621"
       transform="translate(-223.86555,0.67226891)"><g
         id="g3623"><path
           class="st1"
           d="m 346.6,437.1 c -2,3.2 -5.4,6.1 -10.3,8.6 -4.9,2.5 -10.7,3.8 -17.4,3.8 -7.6,0 -14.6,-1.4 -21.2,-4.2 -6.5,-2.8 -12.2,-6.9 -17.1,-12.1 -4.9,-5.3 -8.7,-11.6 -11.5,-19.1 -2.8,-7.5 -4.2,-15.8 -4.2,-25.1 0,-9.4 1.5,-18 4.5,-25.7 3,-7.7 6.9,-14.4 11.9,-20 4.9,-5.6 10.5,-9.9 16.9,-13 6.3,-3.1 12.8,-4.6 19.6,-4.6 6.2,0 11.3,0.6 15.3,1.9 4,1.3 7.3,2.7 9.7,4.3 2.5,1.6 4.3,3.2 5.6,4.8 1.3,1.6 2.2,2.8 2.9,3.4 l 3.6,-12.4 25.6,0 0,50.7 -30.8,0 c -0.1,-3.4 -0.7,-6.5 -1.8,-9.3 -1.1,-2.8 -2.6,-5 -4.4,-6.9 -1.8,-1.8 -3.9,-3.2 -6.2,-4.2 -2.3,-1 -4.7,-1.5 -7.2,-1.5 -3.4,0 -6.6,0.9 -9.5,2.7 -2.9,1.8 -5.4,4.1 -7.5,7.1 -2.1,2.9 -3.7,6.4 -4.8,10.3 -1.1,4 -1.7,8.1 -1.7,12.3 0,4.4 0.5,8.5 1.5,12.3 1,3.8 2.5,7.2 4.6,10.1 2,2.9 4.5,5.1 7.4,6.8 2.9,1.7 6.3,2.5 10.1,2.5 4.9,0 8.6,-0.8 11,-2.5 2.4,-1.7 4.2,-3.6 5.5,-5.9 l 0,-7.2 -10.5,0 0,-18.4 57.1,0 0,18.4 -6.9,0 0,43 -34.4,0 -5.4,-10.9 z"
           id="path3625"
           inkscape:connector-curvature="0"
           style="fill:#f3c898" /><path
           class="st1"
           d="m 402,369.1 c 1.7,-1 3.9,-2.2 6.5,-3.6 2.6,-1.4 5.6,-2.7 8.9,-4 3.3,-1.3 6.8,-2.4 10.5,-3.3 3.7,-0.9 7.6,-1.3 11.6,-1.3 5.2,0 10.5,0.5 16,1.6 5.5,1.1 10.5,3 15.1,5.7 4.5,2.7 8.3,6.3 11.2,10.9 2.9,4.6 4.4,10.3 4.4,17.2 l 0,33.5 10.3,0 0,22 -36.8,0 -4.1,-7.7 c -1.6,2.2 -3.4,4 -5.4,5.4 -2,1.4 -4.1,2.5 -6.2,3.4 -2.1,0.8 -4.2,1.4 -6.3,1.7 -2.1,0.3 -3.8,0.5 -5.3,0.5 -4.1,0 -8.2,-0.6 -12.2,-1.7 -4,-1.1 -7.6,-2.9 -10.8,-5.2 -3.2,-2.3 -5.8,-5.2 -7.8,-8.9 -2,-3.6 -3,-7.9 -3,-13 0,-4.8 0.9,-9.2 2.8,-13.1 1.9,-3.9 4.5,-7.2 7.7,-10 3.3,-2.8 7.1,-4.9 11.4,-6.4 4.4,-1.5 8.9,-2.2 13.8,-2.2 2.5,0 4.8,0.3 6.8,0.8 2,0.5 3.7,1.1 5.2,1.8 1.4,0.7 2.6,1.4 3.4,2.1 0.9,0.7 1.4,1.1 1.6,1.4 l 0,-6 c 0,-3.9 -1.5,-6.5 -4.6,-7.7 -3.1,-1.3 -7,-1.9 -11.7,-1.9 -5.2,0 -9.9,0.9 -14.2,2.6 -4.3,1.7 -8.1,3.5 -11.4,5.3 L 402,369.1 Z m 38.2,59.7 c 2.6,0 4.9,-0.6 6.9,-1.9 1.9,-1.3 3.3,-2.5 4.1,-3.8 l 0,-6.5 c -0.1,-0.2 -0.4,-0.6 -0.8,-1.1 -0.4,-0.5 -1,-1.1 -1.8,-1.6 -0.8,-0.6 -1.8,-1.1 -3,-1.5 -1.2,-0.5 -2.7,-0.7 -4.6,-0.7 -3.4,0 -6,0.9 -7.6,2.6 -1.6,1.7 -2.4,3.9 -2.4,6.5 0,2.4 0.9,4.4 2.6,5.8 1.8,1.5 3.9,2.2 6.6,2.2 z"
           id="path3627"
           inkscape:connector-curvature="0"
           style="fill:#f3c898" /><path
           class="st1"
           d="m 555.8,420.1 c 0,-0.9 0.1,-2.1 0.4,-3.5 0.3,-1.4 0.7,-3 1.1,-4.7 0.5,-1.7 1,-3.5 1.6,-5.3 0.6,-1.8 1.3,-3.6 2,-5.3 l 8.3,-17.4 -9.1,0 0,-21.8 44.4,0 0,21.8 -8.9,0 -29.8,64.2 -26.7,0 -32,-64.2 -8.1,0 0,-21.8 52.3,0 0,21.8 -8.6,0 7.9,18.2 c 1.1,3.3 2.1,6.7 2.9,10.1 0.8,3.4 1.3,6.1 1.5,7.9 l 0.8,0 z"
           id="path3629"
           inkscape:connector-curvature="0"
           style="fill:#f3c898" /><path
           class="st1"
           d="m 695.1,436.1 c -6.4,5.5 -13.2,9.4 -20.3,11.6 -7.1,2.2 -15.1,3.4 -24.1,3.4 -5.4,0 -10.8,-0.9 -16.2,-2.7 -5.4,-1.8 -10.2,-4.5 -14.5,-8.3 -4.3,-3.7 -7.8,-8.5 -10.6,-14.4 -2.8,-5.9 -4.1,-13 -4.1,-21.2 0,-7 1.2,-13.3 3.6,-18.8 2.4,-5.6 5.7,-10.3 9.8,-14.2 4.1,-3.9 9,-6.8 14.6,-8.9 5.6,-2 11.7,-3 18.2,-3 7.1,0 13.4,1 18.8,3.1 5.4,2.1 10,4.9 13.7,8.6 3.7,3.7 6.4,8 8.3,13 1.8,5 2.8,10.4 2.8,16.3 0,2.3 -0.2,4.6 -0.5,6.8 -0.3,2.2 -0.9,4.3 -1.5,6.3 l -54.2,0 c 0.2,1.1 0.6,2.5 1.1,4.1 0.5,1.6 1.4,3.2 2.7,4.6 1.3,1.5 3,2.8 5.2,3.8 2.2,1 5.1,1.5 8.8,1.5 1.5,0 3.1,-0.1 4.9,-0.2 1.8,-0.1 3.7,-0.5 5.8,-1 2.1,-0.6 4.2,-1.4 6.5,-2.5 2.3,-1.1 4.6,-2.6 6.9,-4.6 l 14.3,16.7 z m -42.5,-53.4 c -2.6,0 -4.8,0.5 -6.4,1.5 -1.7,1 -3,2.3 -4,3.7 -1,1.4 -1.7,3 -2.1,4.6 -0.4,1.6 -0.7,2.9 -0.8,4 l 26,0 c 0,-1.6 -0.2,-3.2 -0.5,-4.9 -0.3,-1.7 -0.9,-3.2 -1.8,-4.5 -0.9,-1.3 -2.1,-2.4 -3.8,-3.2 -1.6,-0.8 -3.9,-1.2 -6.6,-1.2 z"
           id="path3631"
           inkscape:connector-curvature="0"
           style="fill:#f3c898" /></g><path
         class="st6"
         d="m 385,510.8 c 0.5,0.5 1.3,1 2.3,1.6 1,0.6 2.2,1.2 3.6,1.8 1.3,0.6 2.8,1.1 4.4,1.5 1.6,0.4 3.3,0.6 5,0.6 2,0 3.6,-0.3 4.9,-0.8 1.3,-0.5 2.3,-1.2 3.1,-2 0.8,-0.8 1.3,-1.7 1.7,-2.6 0.3,-1 0.5,-1.9 0.5,-2.9 l 0,-3 c -0.3,0.4 -0.7,0.9 -1.3,1.5 -0.6,0.6 -1.3,1.1 -2.2,1.6 -0.9,0.5 -1.8,0.9 -3,1.3 -1.1,0.4 -2.4,0.5 -3.8,0.5 -3.8,0 -7.1,-0.6 -9.7,-1.9 -2.7,-1.3 -4.8,-2.9 -6.5,-5 -1.7,-2.1 -2.9,-4.4 -3.7,-7 -0.8,-2.6 -1.2,-5.3 -1.2,-8.1 0,-3.4 0.5,-6.5 1.4,-9.3 0.9,-2.8 2.3,-5.2 4.2,-7.1 1.8,-2 4.2,-3.5 6.9,-4.6 2.8,-1.1 6,-1.6 9.6,-1.6 1.9,0 3.8,0.4 5.5,1.1 1.7,0.8 3,1.6 3.9,2.5 l 1.8,-2.7 21,0 0,11.5 -5.4,0 0,26.3 c 0,3.6 -0.6,6.9 -1.7,9.9 -1.1,3 -2.8,5.5 -5.1,7.6 -2.3,2.1 -5.2,3.8 -8.6,4.9 -3.4,1.2 -7.5,1.8 -12.1,1.8 -2.4,0 -4.7,-0.3 -6.7,-0.8 -2.1,-0.5 -4,-1.2 -5.7,-2 -1.7,-0.8 -3.2,-1.6 -4.5,-2.5 -1.3,-0.9 -2.3,-1.7 -3.2,-2.5 l 4.6,-9.6 z m 12.9,-22.9 c 0,1.4 0.1,2.7 0.4,4 0.3,1.3 0.7,2.4 1.3,3.4 0.6,1 1.2,1.8 2,2.5 0.8,0.6 1.6,1 2.6,1 1.6,0 3.1,-0.9 4.4,-2.7 1.3,-1.8 1.9,-4.3 1.9,-7.5 0,-1.6 -0.1,-3.2 -0.4,-4.6 -0.3,-1.4 -0.7,-2.6 -1.3,-3.7 -0.6,-1.1 -1.2,-1.9 -2,-2.5 -0.8,-0.6 -1.7,-0.9 -2.6,-0.9 -1.9,0 -3.4,1 -4.5,3 -1.2,1.9 -1.8,4.6 -1.8,8 z"
         id="path3633"
         inkscape:connector-curvature="0"
         style="fill:#f6a726" /><path
         class="st6"
         d="m 435.9,466.3 21.3,0 0,21.2 c 0,3.8 0.3,6.6 1,8.4 0.7,1.8 1.9,2.7 3.7,2.7 1.5,0 2.8,-0.6 3.9,-1.8 1.1,-1.2 1.6,-2.8 1.6,-4.8 l 0,-14 -5.8,0 0,-11.6 22.8,0 0,32.3 4.3,0 0,11.7 -16.6,0 -2.4,-5.5 c -0.5,0.5 -1,1.2 -1.7,2 -0.7,0.8 -1.5,1.5 -2.5,2.2 -1,0.7 -2.1,1.3 -3.5,1.8 -1.4,0.5 -3,0.7 -4.8,0.7 -3.3,0 -6.2,-0.4 -8.4,-1.3 -2.3,-0.9 -4.1,-2.2 -5.5,-4 -1.4,-1.8 -2.4,-4 -3,-6.7 -0.6,-2.7 -0.9,-5.9 -0.9,-9.5 l 0,-12.2 -3.7,0 0,-11.6 z"
         id="path3635"
         inkscape:connector-curvature="0"
         style="fill:#f6a726" /><path
         class="st6"
         d="m 517.3,510.3 -24.9,0 0,-11.5 3.9,0 0,-21 -3.8,0 0,-11.4 16.5,0 2.6,5.6 c 0.6,-1.1 1.2,-2.1 1.8,-3 0.6,-0.9 1.5,-1.8 2.5,-2.5 1,-0.7 2.2,-1.3 3.7,-1.7 1.5,-0.4 3.3,-0.6 5.6,-0.6 l 0,15.9 c -4,0 -7.1,0.7 -9.2,2 -2.1,1.3 -3.2,3.9 -3.2,7.8 l 0,9.1 4.4,0 0,11.3 z"
         id="path3637"
         inkscape:connector-curvature="0"
         style="fill:#f6a726" /><path
         class="st6"
         d="m 527.9,466.3 21.3,0 0,21.2 c 0,3.8 0.3,6.6 1,8.4 0.7,1.8 1.9,2.7 3.7,2.7 1.5,0 2.8,-0.6 3.9,-1.8 1.1,-1.2 1.6,-2.8 1.6,-4.8 l 0,-14 -5.8,0 0,-11.6 22.8,0 0,32.3 4.3,0 0,11.7 -16.6,0 -2.4,-5.5 c -0.5,0.5 -1,1.2 -1.7,2 -0.7,0.8 -1.5,1.5 -2.5,2.2 -1,0.7 -2.1,1.3 -3.5,1.8 -1.4,0.5 -3,0.7 -4.8,0.7 -3.3,0 -6.2,-0.4 -8.4,-1.3 -2.3,-0.9 -4.1,-2.2 -5.5,-4 -1.4,-1.8 -2.4,-4 -3,-6.7 -0.6,-2.7 -0.9,-5.9 -0.9,-9.5 l 0,-12.2 -3.7,0 0,-11.6 z"
         id="path3639"
         inkscape:connector-curvature="0"
         style="fill:#f6a726" /></g></g></svg>